<?xml version="1.0" standalone="no"?>
<!DOCTYPE svg PUBLIC "-//W3C//DTD SVG 20010904//EN"
 "http://www.w3.org/TR/2001/REC-SVG-20010904/DTD/svg10.dtd">
<svg version="1.0" xmlns="http://www.w3.org/2000/svg"
 width="180.000000pt" height="180.000000pt" viewBox="0 0 180.000000 180.000000"
 preserveAspectRatio="xMidYMid meet">
<metadata>
Created by potrace 1.14, written by Peter Selinger 2001-2017
</metadata>
<g transform="translate(0.000000,180.000000) scale(0.100000,-0.100000)"
fill="#000000" stroke="none">
<path d="M688 1780 c-108 -27 -190 -63 -283 -125 -131 -87 -121 -61 -129 -347
-4 -137 -5 -248 -2 -248 2 0 30 37 62 82 105 150 244 269 372 319 77 30 260
38 351 15 168 -43 307 -159 396 -330 18 -35 36 -62 39 -58 3 3 6 112 6 243 l0
237 -54 49 c-75 66 -150 110 -253 146 -83 30 -97 31 -258 34 -141 2 -183 -1
-247 -17z"/>
<path d="M819 1388 c-16 -60 -14 -76 14 -138 l25 -55 1 118 c1 96 -2 117 -14
117 -8 0 -19 -17 -26 -42z"/>
<path d="M880 1310 c0 -113 1 -120 20 -120 19 0 20 7 20 120 0 113 -1 120 -20
120 -19 0 -20 -7 -20 -120z"/>
<path d="M936 1399 c-3 -17 -6 -68 -5 -113 l1 -81 23 50 c27 56 30 83 14 138
-12 45 -24 47 -33 6z"/>
<path d="M987 1294 c-27 -59 -46 -108 -44 -111 3 -2 25 22 51 54 41 52 46 63
46 111 0 28 -1 52 -3 52 -2 0 -24 -48 -50 -106z"/>
<path d="M750 1344 c0 -37 7 -56 38 -100 20 -29 41 -54 45 -54 5 0 7 4 5 8 -1
4 -19 49 -38 100 -19 51 -38 92 -42 92 -5 0 -8 -21 -8 -46z"/>
<path d="M680 1321 c0 -48 2 -51 61 -100 33 -28 65 -51 70 -51 5 0 -3 19 -17
43 -47 73 -105 157 -109 157 -3 0 -5 -22 -5 -49z"/>
<path d="M1088 1350 c-46 -70 -106 -175 -102 -179 3 -3 32 22 65 55 58 58 60
62 57 105 l-3 44 -17 -25z"/>
<path d="M580 1316 l0 -47 -30 22 c-16 13 -32 21 -34 18 -3 -2 -6 -21 -8 -42
l-3 -38 115 -50 c63 -27 118 -48 123 -46 5 1 -16 22 -47 46 -31 24 -56 45 -56
47 0 2 30 -14 66 -37 36 -22 69 -38 71 -35 6 5 -172 198 -188 204 -5 2 -9 -17
-9 -42z"/>
<path d="M1105 1260 c-55 -55 -95 -100 -90 -100 6 0 47 22 93 50 45 27 82 48
82 45 0 -2 -32 -27 -71 -55 -39 -28 -68 -54 -66 -57 3 -3 54 17 114 44 107 49
108 50 111 86 4 43 -1 45 -42 13 l-32 -24 4 33 c8 71 0 69 -103 -35z"/>
<path d="M480 908 l0 -313 193 -88 c106 -48 196 -87 200 -87 4 0 6 140 5 312
l-3 312 -190 87 c-104 48 -193 88 -197 88 -5 1 -8 -140 -8 -311z"/>
<path d="M1108 1127 l-198 -91 0 -314 c0 -172 4 -312 9 -310 4 2 97 43 205 93
l196 90 0 312 c0 172 -3 313 -7 312 -5 0 -97 -42 -205 -92z"/>
<path d="M3 816 c20 -257 162 -504 372 -646 93 -62 152 -92 255 -125 73 -24
106 -29 230 -33 162 -5 260 12 390 67 149 62 334 225 420 369 69 118 120 289
120 410 l0 42 -144 0 -144 0 -7 -42 c-25 -168 -69 -262 -174 -369 -127 -129
-274 -186 -456 -176 -304 15 -532 228 -570 531 l-7 56 -146 0 -145 0 6 -84z"/>
</g>
</svg>
