<?xml version="1.0" standalone="no"?>
<!DOCTYPE svg PUBLIC "-//W3C//DTD SVG 20010904//EN"
 "http://www.w3.org/TR/2001/REC-SVG-20010904/DTD/svg10.dtd">
<svg version="1.0" xmlns="http://www.w3.org/2000/svg"
 width="1325.000000pt" height="1325.000000pt" viewBox="0 0 1325.000000 1325.000000"
 preserveAspectRatio="xMidYMid meet">
<metadata>
Created by potrace 1.14, written by Peter Selinger 2001-2017
</metadata>
<g transform="translate(0.000000,1325.000000) scale(0.100000,-0.100000)"
fill="#000000" stroke="none">
<path d="M4567 13140 c-52 -13 -130 -54 -170 -89 -83 -73 -118 -213 -84 -332
11 -35 90 -173 227 -394 115 -187 210 -343 210 -347 0 -4 -53 -34 -118 -68
-197 -102 -423 -250 -587 -385 -44 -36 -138 -123 -209 -193 -397 -392 -665
-867 -794 -1407 -33 -138 -72 -382 -72 -452 l0 -43 3655 0 3655 0 0 43 c0 23
-9 105 -20 182 -144 991 -762 1821 -1702 2286 -49 24 -88 47 -88 50 0 4 97
150 217 325 119 175 225 339 237 364 17 36 21 65 21 140 0 86 -3 100 -29 148
-38 67 -82 107 -166 146 -56 26 -77 31 -145 31 -67 0 -89 -5 -135 -27 -30 -15
-69 -42 -86 -60 -18 -18 -152 -211 -299 -428 -147 -217 -271 -399 -275 -403
-4 -5 -70 5 -146 22 -686 150 -1526 142 -2166 -20 -100 -25 -105 -25 -121 14
-24 56 -477 780 -510 815 -67 70 -202 106 -300 82z m741 -2132 c41 -15 73 -37
114 -78 48 -49 60 -69 79 -130 58 -193 -33 -394 -211 -461 -76 -29 -194 -29
-272 1 -277 104 -294 542 -25 660 100 44 209 47 315 8z m2930 0 c75 -28 142
-92 178 -171 25 -54 29 -74 29 -157 0 -82 -4 -103 -27 -152 -52 -111 -159
-192 -275 -208 -233 -32 -413 123 -413 355 0 183 108 318 283 355 59 13 158 3
225 -22z"/>
<path d="M1876 9294 c-130 -31 -276 -132 -356 -245 l-50 -72 0 -1754 0 -1755
36 -54 c54 -81 156 -169 248 -215 107 -52 205 -72 322 -66 161 9 297 71 414
187 75 76 120 147 158 252 l27 73 3 1542 c3 1725 7 1618 -69 1773 -78 158
-242 292 -414 335 -74 19 -239 18 -319 -1z"/>
<path d="M11050 9294 c-168 -44 -332 -178 -409 -334 -76 -155 -72 -48 -69
-1773 l3 -1542 27 -73 c38 -105 83 -176 158 -252 199 -199 484 -245 738 -120
94 47 191 131 246 215 l36 53 0 1755 0 1754 -50 71 c-27 39 -75 92 -107 118
-67 54 -194 117 -271 133 -73 15 -236 13 -302 -5z"/>
<path d="M4174 8420 c-143 -21 -271 -87 -380 -195 -68 -68 -89 -97 -127 -176
-59 -123 -72 -181 -71 -314 1 -89 6 -125 27 -190 60 -185 181 -325 352 -410
94 -46 189 -67 305 -66 115 1 188 18 300 73 111 54 237 176 293 285 73 140 98
336 62 478 -88 343 -417 565 -761 515z"/>
<path d="M5675 8081 c-76 -19 -134 -67 -166 -136 -16 -33 -19 -66 -19 -198 0
-175 7 -207 63 -266 67 -70 68 -71 492 -71 424 0 425 1 492 71 56 59 63 91 63
266 0 132 -3 165 -19 198 -24 52 -58 88 -112 117 -44 23 -48 23 -404 25 -198
1 -373 -2 -390 -6z"/>
<path d="M7162 8071 c-61 -21 -104 -58 -135 -116 -20 -37 -22 -55 -22 -211 l0
-171 30 -48 c17 -27 50 -63 74 -80 l43 -30 394 -3 393 -3 51 26 c57 29 104 87
121 148 6 24 9 101 7 186 -4 166 -16 203 -85 260 -69 57 -100 61 -477 61 -304
-1 -347 -3 -394 -19z"/>
<path d="M8709 8083 c-15 -2 -51 -18 -80 -36 -41 -25 -60 -45 -81 -86 -27 -52
-28 -58 -28 -212 0 -177 7 -209 63 -268 67 -70 68 -71 492 -71 424 0 425 1
492 71 56 59 63 91 63 266 0 132 -3 165 -19 198 -24 52 -58 88 -112 117 -44
23 -47 23 -404 24 -198 1 -372 0 -386 -3z"/>
<path d="M6283 6674 c-351 -42 -700 -150 -1026 -317 -220 -112 -483 -290 -512
-347 -18 -35 -20 -113 -3 -143 19 -36 440 -468 473 -485 88 -46 163 -33 293
49 207 130 459 231 717 286 124 26 143 27 400 27 257 0 276 -1 400 -27 259
-55 508 -155 717 -286 130 -82 205 -95 293 -49 33 17 454 449 473 485 17 30
15 108 -3 143 -49 94 -546 387 -838 495 -223 82 -478 142 -713 170 -159 19
-514 18 -671 -1z m514 -436 c79 -79 146 -153 150 -166 3 -14 -1 -30 -12 -42
-17 -19 -33 -20 -310 -20 -277 0 -293 1 -310 20 -11 12 -15 28 -12 42 4 13 71
87 150 166 117 116 149 142 172 142 23 0 55 -26 172 -142z"/>
<path d="M4281 5543 c-36 -18 -136 -145 -221 -282 -242 -390 -383 -782 -446
-1241 -24 -173 -24 -539 -1 -710 72 -522 255 -989 545 -1394 76 -106 105 -133
155 -147 79 -21 98 -9 348 233 258 249 274 270 267 371 -4 57 -11 74 -91 206
-410 681 -407 1510 9 2182 30 48 61 104 69 123 19 46 19 117 0 164 -19 46
-433 464 -487 493 -45 23 -102 24 -147 2z m-21 -1573 c19 -19 20 -33 20 -307
0 -252 -2 -289 -17 -305 -9 -10 -26 -18 -37 -18 -27 0 -326 298 -326 325 0 20
246 276 295 306 37 24 40 24 65 -1z"/>
<path d="M8825 5544 c-49 -26 -465 -444 -486 -489 -22 -48 -24 -123 -5 -170 8
-19 42 -79 75 -133 419 -682 410 -1537 -25 -2223 -50 -79 -58 -99 -62 -150 -8
-107 2 -122 262 -373 255 -246 274 -258 353 -237 50 14 79 41 155 147 290 404
473 874 544 1394 24 170 24 527 0 703 -69 526 -262 1010 -566 1423 -73 98
-110 124 -177 124 -21 -1 -51 -8 -68 -16z m223 -1568 c42 -22 302 -290 302
-311 0 -26 -298 -325 -324 -325 -11 0 -28 7 -38 17 -17 15 -18 38 -18 305 0
275 1 289 20 308 24 24 24 24 58 6z"/>
<path d="M6198 5265 c-418 -117 -765 -377 -988 -740 -122 -198 -224 -491 -206
-590 10 -50 68 -110 121 -123 45 -12 405 -34 576 -36 93 -1 121 2 151 18 59
28 115 91 166 185 33 60 71 111 128 168 76 76 92 87 229 153 l148 71 -7 182
c-4 100 -13 277 -21 394 -15 238 -26 273 -91 313 -51 32 -105 33 -206 5z"/>
<path d="M6862 5269 c-28 -14 -51 -36 -67 -63 -23 -39 -26 -61 -40 -268 -22
-345 -22 -455 3 -503 30 -60 88 -112 182 -163 116 -64 229 -177 293 -293 58
-104 104 -153 176 -187 51 -23 60 -24 170 -18 581 32 560 30 611 72 66 56 74
108 36 249 -153 569 -602 1016 -1178 1170 -113 30 -131 31 -186 4z"/>
<path d="M5355 3533 c-243 -15 -284 -26 -327 -86 -51 -71 -11 -266 102 -503
131 -273 368 -537 625 -694 206 -127 512 -233 600 -209 46 13 94 55 112 98 18
42 42 396 46 657 l2 186 -87 38 c-215 93 -339 191 -413 328 -52 98 -95 145
-157 176 -47 24 -62 26 -167 25 -64 -1 -215 -8 -336 -16z"/>
<path d="M7383 3520 c-56 -32 -108 -91 -143 -160 -66 -133 -157 -225 -305
-309 -95 -54 -158 -113 -183 -171 -18 -43 -17 -170 3 -486 9 -137 20 -236 28
-256 16 -39 67 -85 104 -94 71 -18 270 35 452 122 323 153 620 447 776 767 59
123 127 328 132 402 5 78 -22 129 -87 162 -40 20 -72 24 -297 38 -376 23 -417
21 -480 -15z"/>
<path d="M5246 1955 c-30 -10 -97 -71 -263 -237 -123 -123 -230 -237 -238
-254 -19 -41 -19 -107 0 -149 9 -18 46 -55 83 -82 841 -627 1934 -776 2892
-393 219 88 365 165 575 305 146 97 201 144 216 183 15 39 10 100 -10 140 -11
20 -120 137 -243 259 -183 181 -230 223 -263 232 -85 23 -124 12 -265 -74
-691 -421 -1502 -422 -2201 -4 -157 93 -199 104 -283 74z m1698 -678 c10 -26
4 -34 -144 -182 -97 -97 -162 -155 -175 -155 -22 0 -325 296 -325 318 0 7 5
22 10 33 10 19 22 19 318 17 l307 -3 9 -28z"/>
</g>
</svg>
