<?xml version="1.0" standalone="no"?>
<!DOCTYPE svg PUBLIC "-//W3C//DTD SVG 20010904//EN"
 "http://www.w3.org/TR/2001/REC-SVG-20010904/DTD/svg10.dtd">
<svg version="1.0" xmlns="http://www.w3.org/2000/svg"
 width="1745.000000pt" height="1745.000000pt" viewBox="0 0 1745.000000 1745.000000"
 preserveAspectRatio="xMidYMid meet">
<metadata>
Created by potrace 1.14, written by Peter Selinger 2001-2017
</metadata>
<g transform="translate(0.000000,1745.000000) scale(0.100000,-0.100000)"
fill="#000000" stroke="none">
<path d="M9129 17364 c0 -16 -2 -38 -4 -49 -8 -45 -13 -81 -14 -104 -1 -21 -4
-23 -38 -16 -93 17 -88 17 -73 -1 13 -15 7 -16 -75 -10 -50 3 -164 8 -255 11
-91 3 -178 11 -194 17 -20 8 -31 9 -33 1 -2 -6 -27 -8 -61 -6 -31 2 -78 5
-104 7 -52 3 -56 1 -33 -24 15 -16 10 -18 -57 -25 -40 -5 -75 -9 -78 -10 -3 0
-36 -5 -75 -9 -98 -11 -125 -15 -165 -20 -39 -6 -73 -10 -203 -26 -94 -11 -88
-13 -276 46 -41 13 -77 22 -79 19 -2 -2 7 -38 21 -79 l25 -75 -36 -7 c-50 -9
-58 -15 -39 -29 14 -10 13 -14 -14 -34 -22 -16 -39 -21 -57 -17 -15 4 -40 8
-57 10 -25 3 -113 26 -123 32 -1 1 2 14 8 29 15 39 6 42 -38 13 -95 -63 -135
-77 -230 -79 -90 -2 -91 -2 -126 -38 -41 -41 -54 -78 -51 -133 2 -21 -1 -38
-6 -38 -6 0 -6 -7 0 -18 9 -17 -2 -24 -100 -66 -99 -43 -127 -66 -81 -66 9 0
-53 -47 -139 -104 l-157 -105 -48 15 c-147 45 -329 -16 -426 -144 -71 -92 -85
-168 -48 -250 l20 -43 -27 3 c-27 3 -27 4 -26 78 1 69 1 73 -11 45 -7 -16 -21
-53 -30 -82 -17 -51 -18 -52 -69 -62 -29 -6 -72 -13 -97 -17 -25 -3 -47 -8
-50 -11 -3 -3 25 -33 63 -67 l67 -61 -37 -37 c-32 -33 -34 -37 -15 -33 16 3
20 0 15 -8 -24 -40 -358 -469 -373 -480 -11 -8 -18 -16 -15 -18 2 -3 -23 -40
-55 -84 -33 -43 -60 -80 -60 -82 0 -2 11 -1 25 3 14 3 25 4 25 2 0 -5 -12 -29
-155 -323 -149 -304 -196 -407 -191 -412 2 -3 13 0 24 6 24 13 30 35 -82 -294
-41 -121 -72 -222 -70 -224 2 -3 10 1 16 7 27 27 32 0 13 -68 -2 -8 -7 -35
-10 -60 -4 -24 -8 -47 -10 -50 -2 -3 -6 -21 -9 -40 -3 -19 -12 -68 -20 -107
-9 -40 -18 -87 -21 -105 -3 -18 -8 -41 -11 -50 -7 -24 -2 -23 48 12 73 51 191
133 237 164 47 31 44 32 76 -18 9 -14 20 -12 99 14 98 34 155 70 182 115 19
32 21 38 31 98 3 21 11 37 19 37 7 0 52 23 100 50 48 28 88 50 90 50 1 0 37
20 78 45 42 25 79 45 82 45 3 0 21 11 41 24 41 29 50 24 -92 51 -203 39 -259
52 -262 62 -4 12 29 23 75 23 20 0 70 20 133 55 127 69 165 77 244 53 33 -10
69 -20 80 -23 47 -11 8 0 1095 -291 234 -63 490 -132 570 -153 323 -86 438
-75 -860 -81 -1125 -5 -1145 -5 -1172 -25 -68 -51 -68 -160 0 -210 27 -20 45
-20 1298 -23 l1271 -2 34 23 c48 32 68 90 49 147 -7 23 -24 50 -37 60 -14 11
-19 21 -13 25 19 12 42 80 36 112 -6 42 -43 90 -74 98 l-26 6 32 16 c45 22 73
65 74 112 1 68 -25 97 -162 177 -69 41 -132 78 -140 83 -37 23 -278 166 -309
183 -19 11 -59 35 -88 54 -29 19 -55 34 -57 34 -3 0 -80 45 -171 100 -92 55
-170 100 -172 100 -3 0 -17 8 -31 19 -15 10 -44 28 -65 40 -21 12 -158 92
-304 178 -226 134 -272 157 -308 157 -74 1 -128 -53 -128 -128 0 -54 22 -88
81 -123 61 -36 65 -38 174 -102 51 -30 147 -87 213 -126 66 -39 199 -118 295
-175 96 -56 203 -120 237 -141 34 -22 64 -39 66 -39 2 0 45 -25 96 -55 50 -31
106 -64 124 -74 105 -61 413 -244 417 -249 3 -3 -3 -2 -13 1 -10 4 -77 22
-150 41 -73 19 -436 116 -807 216 -371 99 -682 183 -691 185 -41 9 -328 86
-364 97 -65 21 -156 17 -182 -7 -29 -27 -55 -89 -46 -111 5 -13 2 -16 -8 -12
-8 3 -51 17 -96 32 -76 25 -83 30 -83 54 0 15 15 49 34 75 19 26 37 58 40 70
4 18 13 23 38 23 18 0 114 30 214 67 99 37 186 67 193 67 25 0 -1 20 -72 53
-121 58 -452 219 -455 222 -1 1 4 18 13 37 l14 36 77 -30 c90 -35 170 -39 256
-14 72 21 160 101 178 163 8 25 22 46 40 56 25 15 47 39 83 90 11 15 33 17
220 17 114 1 207 3 207 6 0 3 -11 15 -24 27 -13 12 -73 69 -135 126 l-112 104
33 34 32 33 25 -24 c21 -19 58 -29 196 -55 216 -39 223 -41 265 -48 l35 -6
-45 48 c-25 27 -55 59 -67 72 -37 39 -41 38 121 17 l39 -5 -34 43 c-18 24 -36
45 -39 48 -20 19 -94 125 -76 109 4 -4 36 8 71 26 60 30 69 32 117 23 29 -5
84 -22 121 -38 60 -25 67 -26 62 -10 -5 16 -2 17 30 10 19 -4 33 -4 30 0 -3 4
-75 112 -160 239 -86 128 -158 238 -161 245 -3 7 12 24 35 39 l40 27 37 -48
c42 -52 124 -123 166 -142 14 -7 29 -22 32 -34 6 -19 7 -19 16 -5 8 13 18 15
42 10 61 -13 142 3 204 40 40 24 42 24 39 -6 -2 -14 -2 -25 0 -25 2 0 18 27
36 60 17 33 37 60 43 61 6 0 18 2 26 4 8 2 31 7 50 10 19 4 64 13 99 21 35 8
71 12 80 9 9 -3 30 -36 48 -73 l31 -67 1 59 c1 51 3 57 19 51 9 -4 52 -18 95
-31 42 -12 82 -26 87 -29 14 -9 12 16 -5 65 -20 57 -20 56 23 58 49 3 70 10
116 40 33 20 51 24 117 24 95 0 115 -12 199 -118 58 -73 75 -83 63 -36 l-6 25
38 -29 38 -28 -6 29 c-4 17 -9 55 -12 85 -4 30 -8 66 -10 80 -2 14 -7 50 -10
80 -3 30 -8 66 -10 80 -3 23 -6 46 -20 158 -3 24 -6 46 -6 50 -5 31 3 38 44
41 43 2 44 1 56 -40 7 -22 26 -64 43 -92 70 -118 159 -179 260 -181 49 -1 58
-4 58 -19 0 -17 75 -97 90 -97 4 0 20 -33 35 -72 16 -40 32 -77 35 -83 4 -5
15 -32 24 -58 10 -27 21 -45 24 -42 4 3 8 36 9 72 2 36 4 68 6 70 2 2 15 -6
28 -18 l24 -21 3 27 c3 24 10 18 65 -60 l62 -87 7 33 c4 19 8 51 10 72 2 35 3
37 15 21 7 -10 13 -24 13 -31 0 -7 4 -13 8 -13 5 0 8 30 7 68 -1 37 0 70 2 74
2 4 16 3 31 -3 41 -16 112 -14 165 5 l48 17 50 -31 c65 -42 87 -72 214 -295
117 -204 121 -212 122 -193 0 13 9 91 19 178 9 74 12 113 13 149 1 19 3 32 6
29 3 -3 31 -92 61 -199 31 -107 59 -197 62 -201 4 -4 63 135 132 307 69 173
128 315 131 315 4 0 23 -7 44 -15 l37 -16 -18 -27 c-42 -63 -49 -88 -49 -162
0 -54 6 -86 20 -115 26 -53 91 -117 142 -141 42 -19 42 -18 58 -104 0 -3 18
-74 39 -158 l39 -154 66 104 c37 56 80 124 96 150 31 50 44 59 46 33 1 -8 2
-21 3 -27 2 -7 -3 -27 -10 -44 -12 -31 -11 -82 5 -204 4 -36 6 -82 3 -102 -3
-25 0 -38 7 -38 7 0 11 -6 10 -12 -1 -7 -1 -26 0 -41 l1 -29 27 34 c16 18 32
38 38 44 5 6 42 50 80 97 66 82 72 87 100 81 88 -20 156 -1 215 58 22 22 40
45 40 50 0 14 58 -30 70 -53 9 -16 6 -21 -17 -31 -15 -7 -47 -30 -70 -51 -46
-43 -65 -98 -56 -165 5 -39 41 -110 68 -132 13 -11 14 -15 1 -29 -7 -9 -17
-47 -20 -86 -4 -38 -11 -106 -16 -150 -6 -44 -12 -104 -14 -133 l-5 -53 82 67
c45 37 97 81 114 98 18 16 35 28 37 25 13 -13 22 -83 20 -144 -2 -60 -33 -194
-105 -461 l-11 -41 -91 -23 c-51 -14 -96 -25 -102 -27 -8 -1 -145 -37 -450
-118 -16 -5 -34 -9 -40 -10 -5 -2 -35 -10 -65 -19 -48 -14 -307 -82 -725 -192
-71 -18 -197 -51 -279 -73 -82 -22 -145 -36 -140 -31 5 4 36 22 69 40 33 18
77 44 97 57 21 12 40 23 43 23 3 0 22 11 43 23 20 13 58 36 85 50 98 56 143
81 172 97 17 10 68 40 115 66 47 27 93 53 102 59 9 5 66 37 125 71 124 69 570
324 687 392 85 49 116 87 116 140 0 102 -102 162 -193 116 -18 -9 -336 -190
-707 -402 -371 -212 -695 -396 -719 -410 -25 -14 -65 -37 -90 -51 -26 -14 -59
-33 -75 -41 -37 -19 -76 -77 -76 -113 0 -66 58 -135 115 -138 13 0 9 -4 -12
-10 -97 -28 -136 -162 -64 -221 l27 -23 -37 -17 c-42 -18 -77 -75 -74 -118 3
-38 27 -81 58 -104 l28 -21 1262 -2 c1068 -1 1266 1 1291 13 27 13 74 23 191
39 22 3 51 8 65 10 14 3 48 7 75 10 28 3 61 8 75 10 14 2 44 7 67 10 l41 6 8
-43 c4 -24 8 -52 9 -63 2 -11 6 -44 10 -72 l6 -53 -33 -1 c-67 -1 -3705 0
-3753 1 l-50 1 60 18 c254 76 400 201 435 376 36 177 -52 371 -274 600 -187
193 -201 219 -199 365 1 104 8 140 68 340 9 30 20 69 25 85 4 17 15 51 23 76
14 44 13 46 -5 41 -10 -2 -21 -8 -24 -13 -3 -5 -13 -9 -22 -9 -16 0 -17 32
-17 417 0 389 -1 420 -19 456 -21 42 -66 67 -122 67 -39 0 -97 -46 -111 -88
-5 -15 -9 -227 -9 -472 1 -408 2 -448 19 -473 l17 -27 -42 -27 c-24 -15 -60
-40 -80 -55 l-37 -29 9 31 c7 24 3 52 -17 118 -53 181 -104 356 -183 622 -73
243 -86 279 -115 309 -28 29 -40 34 -82 35 -76 2 -133 -50 -135 -123 -1 -28
247 -874 284 -968 24 -62 57 -87 115 -88 40 0 41 -1 25 -20 -9 -11 -22 -24
-28 -30 -70 -63 -152 -207 -180 -315 -32 -126 -5 -305 63 -412 12 -21 23 -40
23 -43 0 -10 36 -49 166 -179 132 -133 166 -182 166 -241 0 -54 -29 -95 -160
-222 -104 -103 -130 -123 -156 -124 -17 0 -897 -1 -1956 -2 l-1925 -2 0 -2450
c0 -2130 4 -2684 20 -2845 1 -19 6 -84 10 -145 4 -60 8 -118 10 -130 2 -11 6
-51 10 -90 3 -38 8 -83 10 -100 3 -16 7 -51 10 -77 5 -52 33 -257 41 -303 9
-50 44 -248 50 -280 47 -257 160 -682 246 -930 245 -708 566 -1284 1013 -1820
92 -111 397 -425 490 -505 61 -53 158 -135 180 -153 11 -9 45 -36 75 -60 327
-261 807 -538 1224 -707 189 -76 488 -172 669 -215 131 -31 157 -40 157 -56 0
-15 4 -16 32 -8 18 5 49 9 68 9 43 0 258 62 475 136 88 30 167 56 175 58 50
13 476 188 540 221 14 8 98 50 187 94 90 44 181 92 203 106 22 14 42 25 44 25
10 0 215 126 331 203 117 78 340 243 420 309 134 113 216 188 345 318 161 162
184 188 285 310 38 47 72 87 75 90 3 3 37 48 76 100 182 244 361 538 488 804
78 163 266 620 270 658 2 13 14 59 28 103 102 316 211 799 252 1115 2 19 14
105 25 190 11 85 23 184 26 220 4 36 8 76 10 90 2 14 6 63 10 110 3 47 8 101
10 120 14 138 17 261 31 1250 8 511 8 2723 0 3100 -3 151 -8 435 -12 630 -3
195 -7 389 -8 430 l-1 75 -130 2 c-72 1 -136 2 -143 2 -8 1 0 18 20 45 18 25
49 68 68 96 19 28 40 57 45 63 29 33 55 77 55 93 0 9 22 40 49 69 61 64 86
113 101 195 36 200 -73 400 -219 400 -50 0 -51 -17 19 170 29 77 43 126 36
128 -6 1 -45 -9 -86 -22 -82 -27 -84 -27 -94 37 -6 38 -8 39 -23 24 -16 -15
-19 -11 -50 66 -19 45 -46 107 -60 137 -87 187 -95 211 -88 279 4 36 8 74 10
85 5 31 13 84 20 140 l7 48 -76 -42 -76 -42 -19 43 -19 42 -14 -27 -14 -27
-74 113 c-87 133 -69 107 -199 299 -90 133 -106 151 -111 130 -5 -22 -10 -19
-61 45 -31 38 -68 83 -83 99 -15 17 -54 65 -89 107 -38 47 -63 72 -65 63 -5
-22 -11 -19 -74 33 -31 26 -130 107 -220 181 -90 74 -165 137 -168 141 -3 3
-27 24 -55 45 -27 22 -59 48 -70 58 -11 10 -33 28 -49 40 l-29 20 7 -46 7 -47
-44 0 c-25 0 -58 -3 -74 -6 -19 -4 -35 -1 -44 8 -21 21 -70 36 -107 32 l-33
-4 -56 119 -56 118 -176 71 c-97 39 -265 107 -374 152 -108 44 -202 80 -208
80 -6 0 -6 -8 2 -21 6 -12 7 -19 1 -15 -5 3 -34 12 -63 20 -30 8 -109 30 -176
50 -67 20 -128 36 -136 36 -10 0 -154 145 -197 199 -3 3 -13 12 -22 20 -16 12
-18 11 -19 -15z m-1639 -912 c0 -7 -65 -52 -75 -52 -7 0 15 43 26 50 12 9 49
10 49 2z m-923 -495 c3 -4 -2 -9 -11 -13 -21 -8 -68 4 -61 16 6 10 61 7 72 -3z
m5349 -1506 c9 -14 26 -36 37 -48 11 -12 21 -41 23 -63 2 -22 13 -58 24 -79
l19 -39 -56 -103 c-86 -160 -133 -252 -133 -259 0 -4 30 3 68 16 37 12 115 38
173 56 l106 34 15 -42 15 -43 -28 -3 c-22 -2 -47 -27 -122 -123 l-95 -120
-1156 0 c-675 -1 -1147 3 -1134 8 23 9 112 33 413 112 94 24 249 65 345 90 96
26 182 48 190 50 8 2 40 11 70 19 86 23 540 143 970 256 174 46 208 70 215
149 8 94 -84 164 -175 132 -17 -5 -30 -6 -30 -2 0 15 89 91 107 91 10 0 36 14
58 31 l39 29 13 -61 c7 -34 20 -73 29 -88z"/>
<path d="M9272 15980 c-44 -19 -85 -77 -97 -139 -2 -9 -31 -104 -65 -211 -34
-107 -73 -231 -86 -275 -14 -44 -28 -87 -31 -95 -3 -8 -7 -19 -8 -25 -3 -10
-44 -139 -71 -221 -23 -72 3 -142 64 -172 74 -37 147 -4 180 81 20 49 90 265
97 297 2 8 15 49 28 90 14 41 46 143 72 225 26 83 58 184 71 225 13 41 24 85
24 98 0 35 -28 88 -55 106 -30 20 -94 28 -123 16z"/>
<path d="M7322 15810 c-43 -26 -72 -90 -62 -133 6 -26 267 -481 364 -636 14
-22 26 -43 26 -45 0 -3 23 -41 50 -86 28 -45 50 -83 50 -84 0 -2 31 -54 68
-117 73 -123 107 -153 169 -151 101 4 157 114 103 204 -11 18 -27 46 -36 62
-8 15 -65 112 -126 215 -61 102 -121 204 -133 226 -13 22 -74 126 -135 230
-62 105 -121 205 -132 223 -36 65 -50 80 -83 96 -44 21 -83 20 -123 -4z"/>
<path d="M9895 15810 c-33 -13 -58 -47 -175 -240 -62 -102 -120 -197 -129
-212 -9 -14 -34 -57 -57 -95 -22 -37 -107 -176 -188 -308 -158 -257 -166 -278
-132 -343 33 -64 111 -88 173 -52 33 18 69 73 268 401 127 209 236 386 243
394 6 7 12 17 12 20 0 4 14 27 30 52 17 24 30 46 30 48 0 3 20 35 44 73 61 95
71 127 57 179 -20 75 -103 114 -176 83z"/>
<path d="M6715 15514 c-56 -28 -80 -82 -67 -149 5 -28 270 -297 934 -947 208
-203 222 -212 298 -189 69 20 106 97 80 164 -8 19 -109 127 -251 267 -131 129
-375 371 -544 537 -168 167 -319 310 -335 318 -37 19 -77 19 -115 -1z"/>
<path d="M10504 15501 c-27 -16 -118 -107 -444 -441 -41 -43 -205 -211 -365
-374 -159 -164 -297 -311 -306 -327 -19 -33 -16 -91 7 -126 31 -49 104 -72
158 -49 27 11 178 162 731 731 69 72 183 187 252 258 144 146 164 177 153 237
-9 48 -33 78 -77 96 -44 19 -72 17 -109 -5z"/>
<path d="M12971 6093 c-5 -21 -30 -115 -55 -210 -431 -1625 -1756 -2978 -3516
-3588 -184 -64 -343 -112 -540 -162 -209 -53 -171 -56 -555 47 -91 24 -363
111 -410 130 -11 4 -87 34 -170 66 -747 286 -1425 724 -1981 1278 -377 376
-566 620 -864 1116 -53 89 -224 445 -278 580 -56 139 -146 411 -187 565 -14
55 -31 115 -37 133 l-10 33 -111 -103 c-62 -57 -114 -105 -117 -108 -3 -3 -57
-52 -120 -110 -63 -58 -117 -107 -120 -110 -3 -3 -59 -54 -125 -115 -66 -60
-122 -112 -125 -115 -3 -3 -57 -52 -120 -110 -136 -124 -178 -163 -370 -340
-56 -52 -112 -103 -124 -113 -11 -10 -65 -60 -120 -110 -54 -51 -109 -101
-122 -112 l-22 -20 52 -160 c142 -429 332 -817 594 -1215 80 -122 288 -406
326 -446 6 -6 27 -31 46 -55 423 -525 1103 -1100 1783 -1508 278 -166 658
-364 902 -470 55 -24 120 -53 145 -64 246 -110 714 -276 1075 -382 298 -88
861 -218 935 -217 70 1 560 102 795 163 489 128 1033 311 1337 448 24 11 97
43 163 72 142 61 456 217 609 301 514 284 937 577 1356 942 128 111 482 462
575 571 33 38 74 85 90 105 198 230 402 515 560 785 180 307 329 632 441 965
l62 185 -61 60 c-34 34 -163 153 -287 265 -271 247 -314 286 -405 370 -38 36
-119 111 -180 165 -60 55 -121 111 -136 125 -14 14 -61 57 -105 97 -119 107
-135 122 -189 172 -177 164 -263 241 -268 241 -4 0 -11 -17 -16 -37z"/>
</g>
</svg>
